<mxfile host="app.diagrams.net" modified="2021-11-17T02:17:03.647Z" agent="5.0 (Windows NT 10.0; Win64; x64) AppleWebKit/537.36 (KHTML, like Gecko) Chrome/91.0.4472.106 Safari/537.36" etag="Jgz7i8bA395x6iEIYC7q" version="15.7.4" type="github">
  <diagram id="kgpKYQtTHZ0yAKxKKP6v" name="Page-1">
    <mxGraphModel dx="1152" dy="692" grid="1" gridSize="10" guides="1" tooltips="1" connect="1" arrows="1" fold="1" page="1" pageScale="1" pageWidth="850" pageHeight="1100" math="0" shadow="0">
      <root>
        <mxCell id="0" />
        <mxCell id="1" parent="0" />
        <mxCell id="3nuBFxr9cyL0pnOWT2aG-1" value="TaskSchedule" style="shape=umlLifeline;perimeter=lifelinePerimeter;container=1;collapsible=0;recursiveResize=0;rounded=0;shadow=0;strokeWidth=1;" parent="1" vertex="1">
          <mxGeometry x="120" y="80" width="100" height="560" as="geometry" />
        </mxCell>
        <mxCell id="3nuBFxr9cyL0pnOWT2aG-2" value="" style="points=[];perimeter=orthogonalPerimeter;rounded=0;shadow=0;strokeWidth=1;" parent="3nuBFxr9cyL0pnOWT2aG-1" vertex="1">
          <mxGeometry x="45" y="70" width="10" height="490" as="geometry" />
        </mxCell>
        <mxCell id="3nuBFxr9cyL0pnOWT2aG-3" value="request" style="verticalAlign=bottom;startArrow=oval;endArrow=block;startSize=8;shadow=0;strokeWidth=1;" parent="3nuBFxr9cyL0pnOWT2aG-1" target="3nuBFxr9cyL0pnOWT2aG-2" edge="1">
          <mxGeometry relative="1" as="geometry">
            <mxPoint x="-15" y="70" as="sourcePoint" />
          </mxGeometry>
        </mxCell>
        <mxCell id="1ZQbf8DL8OWNi4JUQAne-20" value="初始化request，&lt;br&gt;检查request，&lt;br&gt;初始化context" style="endArrow=classic;html=1;rounded=0;exitX=0.98;exitY=0.015;exitDx=0;exitDy=0;exitPerimeter=0;entryX=1.22;entryY=0.15;entryDx=0;entryDy=0;entryPerimeter=0;" edge="1" parent="3nuBFxr9cyL0pnOWT2aG-1" source="3nuBFxr9cyL0pnOWT2aG-2" target="3nuBFxr9cyL0pnOWT2aG-2">
          <mxGeometry width="50" height="50" relative="1" as="geometry">
            <mxPoint x="230" y="290" as="sourcePoint" />
            <mxPoint x="280" y="240" as="targetPoint" />
            <Array as="points">
              <mxPoint x="120" y="77" />
              <mxPoint x="120" y="144" />
            </Array>
          </mxGeometry>
        </mxCell>
        <mxCell id="3nuBFxr9cyL0pnOWT2aG-5" value="StageConfig&#xa;" style="shape=umlLifeline;perimeter=lifelinePerimeter;container=1;collapsible=0;recursiveResize=0;rounded=0;shadow=0;strokeWidth=1;" parent="1" vertex="1">
          <mxGeometry x="300" y="80" width="100" height="630" as="geometry" />
        </mxCell>
        <mxCell id="3nuBFxr9cyL0pnOWT2aG-6" value="" style="points=[];perimeter=orthogonalPerimeter;rounded=0;shadow=0;strokeWidth=1;" parent="3nuBFxr9cyL0pnOWT2aG-5" vertex="1">
          <mxGeometry x="45" y="80" width="10" height="550" as="geometry" />
        </mxCell>
        <mxCell id="1ZQbf8DL8OWNi4JUQAne-1" value="TaskGenerator" style="shape=umlLifeline;perimeter=lifelinePerimeter;container=1;collapsible=0;recursiveResize=0;rounded=0;shadow=0;strokeWidth=1;" vertex="1" parent="1">
          <mxGeometry x="480" y="80" width="200" height="630" as="geometry" />
        </mxCell>
        <mxCell id="1ZQbf8DL8OWNi4JUQAne-22" value="" style="points=[];perimeter=orthogonalPerimeter;rounded=0;shadow=0;strokeWidth=1;" vertex="1" parent="1ZQbf8DL8OWNi4JUQAne-1">
          <mxGeometry x="-315" y="70" width="10" height="490" as="geometry" />
        </mxCell>
        <mxCell id="1ZQbf8DL8OWNi4JUQAne-23" value="TaskGenerator" style="shape=umlLifeline;perimeter=lifelinePerimeter;container=1;collapsible=0;recursiveResize=0;rounded=0;shadow=0;strokeWidth=1;" vertex="1" parent="1ZQbf8DL8OWNi4JUQAne-1">
          <mxGeometry x="30" width="140" height="630" as="geometry" />
        </mxCell>
        <mxCell id="1ZQbf8DL8OWNi4JUQAne-43" value="" style="edgeStyle=orthogonalEdgeStyle;rounded=0;orthogonalLoop=1;jettySize=auto;html=1;entryX=-0.4;entryY=0.313;entryDx=0;entryDy=0;entryPerimeter=0;" edge="1" parent="1ZQbf8DL8OWNi4JUQAne-23" source="1ZQbf8DL8OWNi4JUQAne-24" target="1ZQbf8DL8OWNi4JUQAne-39">
          <mxGeometry relative="1" as="geometry">
            <Array as="points">
              <mxPoint x="125" y="320" />
              <mxPoint x="125" y="255" />
            </Array>
          </mxGeometry>
        </mxCell>
        <mxCell id="1ZQbf8DL8OWNi4JUQAne-24" value="" style="points=[];perimeter=orthogonalPerimeter;rounded=0;shadow=0;strokeWidth=1;" vertex="1" parent="1ZQbf8DL8OWNi4JUQAne-23">
          <mxGeometry x="65" y="80" width="10" height="550" as="geometry" />
        </mxCell>
        <mxCell id="1ZQbf8DL8OWNi4JUQAne-45" value="" style="edgeStyle=orthogonalEdgeStyle;rounded=0;orthogonalLoop=1;jettySize=auto;html=1;exitX=0.153;exitY=0.116;exitDx=0;exitDy=0;exitPerimeter=0;entryX=1.041;entryY=0.322;entryDx=0;entryDy=0;entryPerimeter=0;" edge="1" parent="1ZQbf8DL8OWNi4JUQAne-23" source="1ZQbf8DL8OWNi4JUQAne-39" target="1ZQbf8DL8OWNi4JUQAne-24">
          <mxGeometry relative="1" as="geometry">
            <Array as="points">
              <mxPoint x="122" y="235" />
            </Array>
          </mxGeometry>
        </mxCell>
        <mxCell id="1ZQbf8DL8OWNi4JUQAne-39" value="初始化taskmanager context" style="html=1;points=[];perimeter=orthogonalPerimeter;" vertex="1" parent="1ZQbf8DL8OWNi4JUQAne-23">
          <mxGeometry x="120" y="230" width="10" height="80" as="geometry" />
        </mxCell>
        <mxCell id="1ZQbf8DL8OWNi4JUQAne-25" value="" style="points=[];perimeter=orthogonalPerimeter;rounded=0;shadow=0;strokeWidth=1;" vertex="1" parent="1ZQbf8DL8OWNi4JUQAne-1">
          <mxGeometry x="-315" y="70" width="10" height="560" as="geometry" />
        </mxCell>
        <mxCell id="1ZQbf8DL8OWNi4JUQAne-26" value="传入动态执行计划" style="endArrow=classic;html=1;rounded=0;entryX=0.1;entryY=0.298;entryDx=0;entryDy=0;entryPerimeter=0;" edge="1" parent="1ZQbf8DL8OWNi4JUQAne-1" source="1ZQbf8DL8OWNi4JUQAne-25" target="1ZQbf8DL8OWNi4JUQAne-24">
          <mxGeometry width="50" height="50" relative="1" as="geometry">
            <mxPoint x="-110" y="280" as="sourcePoint" />
            <mxPoint x="-60" y="230" as="targetPoint" />
          </mxGeometry>
        </mxCell>
        <mxCell id="1ZQbf8DL8OWNi4JUQAne-48" value="返回taskmanager context" style="endArrow=classic;html=1;rounded=0;entryX=-0.406;entryY=0.532;entryDx=0;entryDy=0;entryPerimeter=0;" edge="1" parent="1ZQbf8DL8OWNi4JUQAne-1" source="1ZQbf8DL8OWNi4JUQAne-24" target="1ZQbf8DL8OWNi4JUQAne-25">
          <mxGeometry relative="1" as="geometry">
            <mxPoint x="180" y="330" as="sourcePoint" />
            <mxPoint x="280" y="330" as="targetPoint" />
          </mxGeometry>
        </mxCell>
        <mxCell id="1ZQbf8DL8OWNi4JUQAne-4" value="TaskLogProcess" style="shape=umlLifeline;perimeter=lifelinePerimeter;container=1;collapsible=0;recursiveResize=0;rounded=0;shadow=0;strokeWidth=1;" vertex="1" parent="1">
          <mxGeometry x="710" y="80" width="100" height="630" as="geometry" />
        </mxCell>
        <mxCell id="1ZQbf8DL8OWNi4JUQAne-5" value="" style="points=[];perimeter=orthogonalPerimeter;rounded=0;shadow=0;strokeWidth=1;" vertex="1" parent="1ZQbf8DL8OWNi4JUQAne-4">
          <mxGeometry x="45" y="80" width="10" height="550" as="geometry" />
        </mxCell>
        <mxCell id="1ZQbf8DL8OWNi4JUQAne-7" value="Context&#xa;" style="shape=umlLifeline;perimeter=lifelinePerimeter;container=1;collapsible=0;recursiveResize=0;rounded=0;shadow=0;strokeWidth=1;" vertex="1" parent="1">
          <mxGeometry x="840" y="80" width="100" height="630" as="geometry" />
        </mxCell>
        <mxCell id="1ZQbf8DL8OWNi4JUQAne-8" value="" style="points=[];perimeter=orthogonalPerimeter;rounded=0;shadow=0;strokeWidth=1;" vertex="1" parent="1ZQbf8DL8OWNi4JUQAne-7">
          <mxGeometry x="45" y="80" width="10" height="550" as="geometry" />
        </mxCell>
        <mxCell id="1ZQbf8DL8OWNi4JUQAne-15" value="封装好的请求" style="endArrow=classic;html=1;rounded=0;exitX=0.9;exitY=0.184;exitDx=0;exitDy=0;exitPerimeter=0;" edge="1" parent="1" source="3nuBFxr9cyL0pnOWT2aG-2" target="3nuBFxr9cyL0pnOWT2aG-5">
          <mxGeometry width="50" height="50" relative="1" as="geometry">
            <mxPoint x="530" y="250" as="sourcePoint" />
            <mxPoint x="340" y="170" as="targetPoint" />
            <Array as="points" />
          </mxGeometry>
        </mxCell>
        <mxCell id="1ZQbf8DL8OWNi4JUQAne-21" value="返回动态分阶段执行计划" style="endArrow=classic;html=1;rounded=0;entryX=1.06;entryY=0.243;entryDx=0;entryDy=0;entryPerimeter=0;" edge="1" parent="1" source="3nuBFxr9cyL0pnOWT2aG-6" target="3nuBFxr9cyL0pnOWT2aG-2">
          <mxGeometry width="50" height="50" relative="1" as="geometry">
            <mxPoint x="350" y="370" as="sourcePoint" />
            <mxPoint x="400" y="320" as="targetPoint" />
          </mxGeometry>
        </mxCell>
        <mxCell id="1ZQbf8DL8OWNi4JUQAne-52" value="初始化context&lt;br&gt;" style="endArrow=classic;html=1;rounded=0;exitX=1;exitY=0.375;exitDx=0;exitDy=0;exitPerimeter=0;" edge="1" parent="1" source="1ZQbf8DL8OWNi4JUQAne-39" target="1ZQbf8DL8OWNi4JUQAne-7">
          <mxGeometry width="50" height="50" relative="1" as="geometry">
            <mxPoint x="680" y="440" as="sourcePoint" />
            <mxPoint x="730" y="390" as="targetPoint" />
          </mxGeometry>
        </mxCell>
        <mxCell id="1ZQbf8DL8OWNi4JUQAne-53" value="记录日志" style="endArrow=classic;html=1;rounded=0;entryX=-0.3;entryY=0.423;entryDx=0;entryDy=0;entryPerimeter=0;" edge="1" parent="1" source="1ZQbf8DL8OWNi4JUQAne-39" target="1ZQbf8DL8OWNi4JUQAne-5">
          <mxGeometry width="50" height="50" relative="1" as="geometry">
            <mxPoint x="680" y="430" as="sourcePoint" />
            <mxPoint x="730" y="380" as="targetPoint" />
          </mxGeometry>
        </mxCell>
        <mxCell id="1ZQbf8DL8OWNi4JUQAne-54" value="subtask&#xa;" style="shape=umlLifeline;perimeter=lifelinePerimeter;container=1;collapsible=0;recursiveResize=0;rounded=0;shadow=0;strokeWidth=1;" vertex="1" parent="1">
          <mxGeometry x="1020" y="80" width="100" height="630" as="geometry" />
        </mxCell>
        <mxCell id="1ZQbf8DL8OWNi4JUQAne-55" value="" style="points=[];perimeter=orthogonalPerimeter;rounded=0;shadow=0;strokeWidth=1;" vertex="1" parent="1ZQbf8DL8OWNi4JUQAne-54">
          <mxGeometry x="45" y="80" width="10" height="550" as="geometry" />
        </mxCell>
        <mxCell id="1ZQbf8DL8OWNi4JUQAne-57" value="sdc&#xa;" style="shape=umlLifeline;perimeter=lifelinePerimeter;container=1;collapsible=0;recursiveResize=0;rounded=0;shadow=0;strokeWidth=1;" vertex="1" parent="1">
          <mxGeometry x="1200" y="80" width="100" height="630" as="geometry" />
        </mxCell>
        <mxCell id="1ZQbf8DL8OWNi4JUQAne-58" value="" style="points=[];perimeter=orthogonalPerimeter;rounded=0;shadow=0;strokeWidth=1;" vertex="1" parent="1ZQbf8DL8OWNi4JUQAne-57">
          <mxGeometry x="45" y="80" width="10" height="550" as="geometry" />
        </mxCell>
        <mxCell id="1ZQbf8DL8OWNi4JUQAne-60" value="transformer&#xa;" style="shape=umlLifeline;perimeter=lifelinePerimeter;container=1;collapsible=0;recursiveResize=0;rounded=0;shadow=0;strokeWidth=1;" vertex="1" parent="1">
          <mxGeometry x="1380" y="80" width="100" height="560" as="geometry" />
        </mxCell>
        <mxCell id="1ZQbf8DL8OWNi4JUQAne-61" value="" style="points=[];perimeter=orthogonalPerimeter;rounded=0;shadow=0;strokeWidth=1;" vertex="1" parent="1ZQbf8DL8OWNi4JUQAne-60">
          <mxGeometry x="45" y="80" width="10" height="480" as="geometry" />
        </mxCell>
      </root>
    </mxGraphModel>
  </diagram>
</mxfile>
